<svg id="svg" version="1.1" xmlns="http://www.w3.org/2000/svg" xmlns:xlink="http://www.w3.org/1999/xlink" width="400" height="400" viewBox="0, 0, 400,400"><g id="svgg"><path id="path0" d="M318.529 0.836 C 313.139 2.136,311.578 3.554,272.659 42.527 L 233.990 81.250 143.167 81.250 L 52.344 81.250 52.344 51.258 C 52.344 17.049,52.546 18.140,46.063 17.435 C 27.958 15.467,6.363 32.147,1.162 52.118 C -0.611 58.923,-0.588 315.332,1.186 322.297 C 4.914 336.934,16.389 349.082,31.250 354.123 L 36.328 355.846 129.243 356.078 L 222.159 356.310 205.220 373.313 C 186.718 391.884,185.971 393.068,189.775 397.765 L 191.268 399.609 293.990 399.609 C 393.907 399.609,396.756 399.569,398.355 398.121 L 400.000 396.633 400.000 293.629 C 400.000 191.667,399.984 190.609,398.438 189.063 C 394.758 185.383,392.045 186.627,381.908 196.638 L 372.656 205.776 372.656 145.431 L 372.656 85.085 370.739 83.168 L 368.821 81.250 345.550 81.250 L 322.279 81.250 339.188 64.258 C 365.318 37.999,365.596 35.331,344.391 14.288 C 331.180 1.177,326.724 -1.140,318.529 0.836 M336.654 24.502 C 348.949 36.880,348.909 36.626,339.972 45.563 L 333.591 51.944 320.518 38.872 L 307.446 25.799 312.903 20.238 C 322.594 10.361,322.611 10.364,336.654 24.502 M39.844 119.104 C 39.844 184.118,40.083 208.263,40.740 209.706 C 42.586 213.759,50.306 213.775,51.858 209.731 C 52.125 209.035,52.344 182.655,52.344 151.108 L 52.344 93.750 136.890 93.750 L 221.436 93.750 204.859 110.393 C 186.749 128.574,185.707 130.238,189.844 134.375 C 194.435 138.966,193.167 139.999,238.273 94.922 L 279.315 53.907 292.389 66.998 L 305.462 80.088 245.109 140.438 L 184.755 200.788 171.689 187.699 L 158.622 174.609 170.717 162.450 C 183.934 149.163,185.166 146.885,181.250 142.969 C 177.185 138.904,175.302 140.031,158.929 156.325 L 143.938 171.244 133.931 199.685 L 123.924 228.125 112.864 228.125 C 102.707 228.125,101.686 228.256,100.355 229.726 C 98.325 231.970,98.470 236.317,100.647 238.494 L 102.387 240.234 186.419 240.234 L 270.451 240.234 271.944 238.390 C 273.705 236.215,273.892 232.170,272.329 230.032 C 271.253 228.560,269.486 228.504,212.368 228.125 L 153.516 227.734 170.313 221.915 L 187.109 216.096 248.444 154.923 L 309.779 93.750 334.968 93.750 L 360.156 93.750 360.156 156.045 L 360.156 218.340 317.578 260.945 C 291.866 286.672,274.964 304.161,274.910 305.095 C 274.714 308.470,275.167 309.839,277.040 311.523 C 281.352 315.403,279.146 317.309,335.338 261.141 L 387.500 209.000 387.500 234.188 L 387.500 259.375 381.214 259.375 C 372.547 259.375,369.328 262.458,371.961 268.236 C 373.187 270.928,375.818 271.875,382.068 271.875 L 387.500 271.875 387.500 279.995 L 387.500 288.116 381.174 288.403 C 367.109 289.042,366.864 300.781,380.916 300.781 L 387.500 300.781 387.500 309.375 L 387.500 317.969 382.068 317.969 C 373.747 317.969,370.183 320.708,371.529 326.070 C 372.380 329.462,374.644 330.469,381.424 330.469 L 387.500 330.469 387.500 339.063 L 387.500 347.656 381.214 347.656 C 372.547 347.656,369.328 350.739,371.961 356.518 C 373.187 359.209,375.818 360.156,382.068 360.156 L 387.500 360.156 387.500 373.828 L 387.500 387.500 298.246 387.500 L 208.992 387.500 239.262 357.223 C 272.804 323.672,272.753 323.741,267.473 319.588 C 263.093 316.143,261.883 316.833,247.676 330.885 L 234.618 343.802 136.645 343.553 C 29.099 343.280,36.001 343.592,28.013 338.640 C 1.403 322.146,11.033 283.951,42.952 279.388 C 52.952 277.958,52.344 279.753,52.344 251.687 C 52.344 228.273,52.313 227.802,50.645 226.027 C 48.318 223.550,44.299 223.599,41.761 226.136 L 39.844 228.054 39.844 247.508 L 39.844 266.963 34.726 268.226 C 28.258 269.822,22.714 272.584,16.992 277.059 L 12.500 280.572 12.500 169.508 C 12.500 45.907,12.128 54.443,17.897 45.518 C 22.519 38.366,32.595 31.299,39.258 30.536 C 39.580 30.499,39.844 70.355,39.844 119.104 M311.712 48.040 L 324.578 60.924 319.531 66.016 L 314.484 71.108 301.389 58.030 L 288.294 44.951 293.148 40.054 C 299.124 34.024,296.654 32.961,311.712 48.040 M162.864 196.848 C 168.422 202.419,172.796 207.152,172.584 207.364 C 172.371 207.577,168.802 208.934,164.653 210.380 L 157.109 213.008 151.802 207.660 L 146.495 202.312 149.185 194.515 C 150.665 190.227,152.074 186.719,152.316 186.719 C 152.559 186.719,157.305 191.277,162.864 196.848 M348.828 282.114 C 346.330 283.521,283.609 346.264,282.371 348.594 C 280.835 351.485,280.964 353.331,282.869 355.754 L 284.488 357.813 319.452 357.813 L 354.415 357.813 356.114 356.004 C 358.513 353.451,358.820 286.542,356.445 283.683 C 354.794 281.694,350.971 280.906,348.828 282.114 M345.313 324.219 L 345.313 345.313 324.029 345.313 L 302.745 345.313 323.828 324.219 C 335.424 312.617,345.001 303.125,345.112 303.125 C 345.222 303.125,345.313 312.617,345.313 324.219 " stroke="none" fill="#000000" fill-rule="evenodd"></path></g></svg>