<svg id="svg" version="1.1" xmlns="http://www.w3.org/2000/svg" xmlns:xlink="http://www.w3.org/1999/xlink" width="400" height="400" viewBox="0, 0, 400,400"><g id="svgg"><path id="path0" d="M108.257 58.723 C 95.075 61.240,82.505 71.976,77.106 85.327 C 75.524 89.242,75.413 91.176,74.944 123.047 C 74.519 151.898,74.257 157.247,73.088 160.938 C 68.006 176.971,54.636 188.532,38.672 190.697 C 29.390 191.956,28.933 192.089,26.886 194.137 C 24.189 196.834,24.189 203.166,26.886 205.863 C 28.933 207.911,29.390 208.044,38.672 209.303 C 54.637 211.468,68.020 223.041,73.084 239.063 C 74.248 242.744,74.515 248.169,74.949 276.953 C 75.561 317.592,76.008 319.370,88.544 330.978 C 98.668 340.353,105.879 342.187,132.604 342.187 C 155.700 342.187,158.599 341.231,158.591 333.615 C 158.582 325.539,157.348 325.127,132.031 324.756 C 106.318 324.379,100.845 322.309,94.683 310.631 L 92.578 306.641 92.125 273.438 C 91.754 246.286,91.443 239.445,90.419 235.902 C 86.386 221.957,79.379 211.189,69.582 203.879 C 63.922 199.656,63.922 200.344,69.582 196.121 C 79.379 188.811,86.386 178.043,90.419 164.098 C 91.443 160.555,91.754 153.714,92.125 126.563 L 92.578 93.359 94.683 89.369 C 100.845 77.691,106.318 75.621,132.031 75.244 C 155.272 74.903,155.056 74.934,157.053 71.659 C 159.995 66.833,158.653 61.439,153.898 58.980 C 151.267 57.620,115.100 57.416,108.257 58.723 M245.558 59.336 C 241.129 62.037,240.085 66.964,242.947 71.659 C 244.944 74.934,244.728 74.903,267.969 75.244 C 293.682 75.621,299.155 77.691,305.317 89.369 L 307.422 93.359 307.875 126.563 C 308.246 153.714,308.557 160.555,309.581 164.098 C 313.614 178.043,320.621 188.811,330.418 196.121 C 336.078 200.344,336.078 199.656,330.418 203.879 C 320.621 211.189,313.614 221.957,309.581 235.902 C 308.557 239.445,308.246 246.286,307.875 273.438 L 307.422 306.641 305.317 310.631 C 299.155 322.309,293.682 324.379,267.969 324.756 C 242.652 325.127,241.418 325.539,241.409 333.615 C 241.401 341.231,244.300 342.187,267.396 342.187 C 294.206 342.187,301.829 340.229,311.715 330.800 C 324.064 319.020,324.440 317.501,325.051 276.953 C 325.485 248.169,325.752 242.744,326.916 239.063 C 331.980 223.041,345.363 211.468,361.328 209.303 C 364.766 208.837,368.399 208.296,369.403 208.102 C 376.964 206.639,376.964 193.361,369.403 191.898 C 368.399 191.704,364.766 191.163,361.328 190.697 C 345.363 188.532,331.980 176.959,326.916 160.938 C 325.752 157.256,325.485 151.831,325.051 123.047 C 324.572 91.257,324.456 89.232,322.885 85.327 C 317.388 71.664,304.916 61.213,291.067 58.665 C 282.333 57.059,248.474 57.558,245.558 59.336 " stroke="none" fill="#000000" fill-rule="evenodd"></path></g></svg>