<svg id="svg" version="1.1" xmlns="http://www.w3.org/2000/svg" xmlns:xlink="http://www.w3.org/1999/xlink" width="400" height="400" viewBox="0, 0, 400,400"><g id="svgg"><path id="path0" d="M363.788 0.855 C 297.989 7.800,230.500 40.394,180.796 89.232 L 167.452 102.344 163.609 102.345 C 124.856 102.354,74.533 121.345,39.984 148.998 C 22.981 162.607,18.560 168.470,21.215 173.887 C 23.388 178.322,24.329 178.567,57.031 183.192 C 94.366 188.472,91.938 187.716,87.375 192.640 C 81.163 199.343,80.428 203.078,84.297 208.281 C 87.000 211.917,190.161 314.851,192.947 316.692 C 197.118 319.448,201.258 318.280,207.360 312.625 C 212.249 308.094,211.440 305.494,216.798 342.933 C 221.517 375.907,221.524 375.937,224.984 377.726 C 230.555 380.607,234.636 378.846,242.390 370.216 C 275.028 333.890,294.399 288.168,297.362 240.465 L 297.862 232.422 310.106 219.922 C 365.663 163.206,400.000 85.672,400.000 16.937 L 400.000 4.567 397.716 2.284 L 395.433 0.000 382.677 0.104 C 375.662 0.161,367.162 0.499,363.788 0.855 M382.813 20.620 C 382.813 78.138,348.079 155.723,300.455 204.586 C 292.022 213.238,199.050 296.875,197.865 296.875 C 197.085 296.875,103.125 202.921,103.125 202.140 C 103.125 200.848,187.059 107.644,196.171 98.818 C 244.952 51.565,318.496 18.578,377.930 17.293 L 382.813 17.188 382.813 20.620 M274.307 73.891 C 238.629 83.486,232.694 134.131,265.234 151.301 C 293.750 166.347,327.344 146.417,327.344 114.453 C 327.344 86.694,301.160 66.669,274.307 73.891 M295.703 92.256 C 311.169 99.570,314.762 119.651,302.753 131.659 C 290.749 143.663,270.623 140.066,263.367 124.620 C 253.868 104.398,275.531 82.716,295.703 92.256 M149.849 122.461 C 146.138 126.783,108.129 169.421,106.743 170.817 L 105.078 172.493 77.006 168.459 L 48.933 164.424 53.959 160.437 C 75.987 142.960,106.936 128.838,134.766 123.563 C 139.492 122.668,144.063 121.786,144.922 121.605 C 149.211 120.699,151.083 121.025,149.849 122.461 M277.776 258.421 C 272.664 288.877,260.057 318.434,241.682 343.046 L 235.616 351.172 231.563 323.047 C 227.800 296.935,227.602 294.828,228.794 293.613 C 234.574 287.724,278.553 249.332,278.771 249.986 C 278.925 250.448,278.478 254.244,277.776 258.421 M68.888 267.991 C 43.361 274.678,31.647 293.221,7.822 364.661 C -1.035 391.218,-1.491 393.942,2.284 397.716 C 6.080 401.513,8.938 401.038,35.267 392.240 C 87.760 374.700,113.791 362.148,122.955 349.957 C 152.503 310.649,116.191 255.600,68.888 267.991 M89.421 284.790 C 117.856 292.196,125.708 328.482,102.485 345.166 C 92.816 352.112,24.276 380.005,22.135 377.865 C 19.995 375.724,47.888 307.184,54.834 297.515 C 62.634 286.659,76.710 281.479,89.421 284.790 " stroke="none" fill="#000000" fill-rule="evenodd"></path></g></svg>