<svg id="svg" version="1.1" xmlns="http://www.w3.org/2000/svg" xmlns:xlink="http://www.w3.org/1999/xlink" width="400" height="400" viewBox="0, 0, 400,400"><g id="svgg"><path id="path0" d="M57.113 2.059 C 54.668 3.277,52.082 5.359,50.777 7.161 C 48.417 10.419,3.663 96.462,1.355 102.179 C 0.055 105.401,-0.012 112.610,0.184 229.165 L 0.391 352.734 2.584 358.984 C 8.861 376.867,23.133 391.139,41.016 397.416 L 47.266 399.609 200.000 399.609 L 352.734 399.609 358.984 397.416 C 406.250 380.827,414.956 318.360,373.961 289.967 C 359.407 279.887,357.696 279.687,285.783 279.687 L 225.406 279.688 279.859 225.195 C 336.075 168.940,336.719 168.224,336.719 161.991 C 336.719 156.097,334.721 153.813,294.358 113.581 C 250.526 69.889,252.509 71.465,243.945 73.527 C 240.431 74.374,237.405 77.244,186.914 127.627 L 133.594 180.833 133.568 143.737 C 133.545 110.164,133.410 106.270,132.150 102.734 C 129.728 95.944,84.634 9.918,81.715 6.520 C 75.864 -0.292,65.574 -2.158,57.113 2.059 M70.847 15.820 C 72.569 17.725,86.719 44.585,86.719 45.947 C 86.719 47.288,77.350 51.490,72.298 52.413 C 64.802 53.784,55.592 51.942,48.648 47.683 L 46.125 46.136 53.487 31.857 C 62.031 15.286,62.933 14.063,66.602 14.063 C 68.366 14.063,69.793 14.653,70.847 15.820 M42.486 60.879 C 54.511 68.302,74.017 68.823,88.178 62.098 C 91.369 60.583,94.050 59.438,94.138 59.554 C 95.380 61.206,117.206 104.220,117.035 104.679 C 116.852 105.167,103.103 116.382,94.678 122.914 C 93.905 123.514,91.215 121.283,83.741 113.847 C 67.904 98.090,64.989 98.117,48.752 114.168 L 39.207 123.606 27.384 114.095 L 15.561 104.584 17.059 102.097 C 17.883 100.729,23.199 90.557,28.872 79.492 C 34.545 68.428,39.381 59.375,39.618 59.375 C 39.856 59.375,41.146 60.052,42.486 60.879 M285.349 124.802 L 322.657 162.104 263.870 220.896 L 205.082 279.688 130.093 279.688 L 55.104 279.688 64.050 270.715 L 72.997 261.743 75.366 263.988 C 83.567 271.763,93.706 262.312,85.855 254.212 L 83.272 251.547 87.511 247.255 L 91.749 242.963 96.460 247.565 C 103.063 254.014,105.385 254.979,109.643 253.039 C 115.148 250.531,114.469 245.589,107.653 238.561 L 102.026 232.757 106.467 228.315 L 110.909 223.874 121.339 234.203 C 133.155 245.902,134.747 246.623,139.123 242.248 C 143.702 237.668,142.856 235.692,131.266 223.902 L 121.125 213.588 125.409 209.357 L 129.693 205.126 135.162 210.553 C 141.675 217.016,145.393 217.896,148.911 213.806 C 152.362 209.794,151.589 206.917,145.329 200.460 L 139.876 194.837 144.164 190.602 L 148.453 186.367 158.015 195.833 C 170.355 208.048,172.365 208.958,177.148 204.493 C 181.345 200.577,180.040 197.759,168.755 186.362 L 158.603 176.110 162.857 171.908 L 167.111 167.707 172.551 172.839 C 180.137 179.996,185.673 180.516,188.242 174.313 C 189.654 170.906,188.722 168.971,182.729 162.869 L 177.338 157.379 181.850 152.914 L 186.362 148.449 196.490 158.599 C 207.204 169.337,209.352 170.490,214.007 167.999 C 219.864 164.864,217.960 159.908,206.415 148.240 L 196.550 138.269 200.771 133.994 L 204.993 129.720 210.616 135.172 C 217.073 141.433,219.951 142.205,223.962 138.755 C 228.052 135.237,227.172 131.519,220.709 125.006 L 215.282 119.537 219.513 115.253 L 223.744 110.969 234.059 121.109 C 245.848 132.700,247.824 133.546,252.404 128.966 C 256.779 124.591,256.058 122.998,244.363 111.188 L 234.039 100.761 240.635 94.131 C 244.263 90.484,247.413 87.500,247.636 87.500 C 247.859 87.500,264.830 104.286,285.349 124.802 M76.528 126.879 L 85.938 136.180 85.938 182.354 L 85.938 228.527 66.406 248.047 L 46.875 267.566 46.875 252.212 L 46.875 236.858 44.379 234.758 C 41.451 232.294,37.510 232.456,34.812 235.152 C 33.274 236.689,33.193 237.744,32.975 259.245 L 32.746 281.731 23.404 291.049 L 14.063 300.366 14.062 211.054 L 14.062 121.742 18.164 125.027 C 20.420 126.834,24.619 130.116,27.496 132.320 L 32.726 136.328 32.769 176.037 L 32.812 215.745 35.096 218.029 C 38.081 221.013,42.186 221.166,44.957 218.395 L 46.875 216.477 46.875 176.414 L 46.875 136.351 56.437 126.766 C 61.695 121.495,66.250 117.271,66.558 117.380 C 66.866 117.489,71.352 121.764,76.528 126.879 M109.773 204.672 L 100.000 214.445 100.005 175.777 L 100.011 137.109 109.576 129.508 L 119.141 121.907 119.344 158.403 L 119.547 194.899 109.773 204.672 M351.163 295.310 C 397.062 307.049,397.092 373.065,351.203 384.752 C 344.151 386.548,55.849 386.548,48.797 384.752 C 3.095 373.112,2.897 307.297,48.528 295.347 C 57.718 292.940,341.761 292.906,351.163 295.310 M51.953 307.334 C 21.684 314.705,17.212 356.303,45.201 370.136 C 61.368 378.126,82.297 371.206,90.030 355.314 C 102.665 329.345,79.813 300.550,51.953 307.334 M331.332 307.486 C 306.523 314.158,298.046 345.266,316.016 363.698 C 328.816 376.827,351.894 376.627,364.379 363.279 C 387.384 338.685,363.742 298.771,331.332 307.486 M68.455 322.521 C 79.619 328.273,82.790 341.539,75.420 351.654 C 64.570 366.545,40.716 358.415,40.642 339.802 C 40.587 325.849,56.148 316.181,68.455 322.521 M345.557 321.401 C 362.611 326.534,364.220 349.867,348.047 357.513 C 328.823 366.601,311.442 342.232,326.064 326.691 C 331.422 320.996,338.147 319.171,345.557 321.401 " stroke="none" fill="#000000" fill-rule="evenodd"></path></g></svg>