<svg id="svg" version="1.1" xmlns="http://www.w3.org/2000/svg" xmlns:xlink="http://www.w3.org/1999/xlink" width="400" height="400" viewBox="0, 0, 400,400"><g id="svgg"><path id="path0" d="M334.876 1.483 C 329.630 4.941,329.698 4.501,329.698 35.156 C 329.698 70.277,329.706 70.297,344.779 70.307 C 351.709 70.312,352.412 70.444,352.062 71.680 C 351.850 72.432,351.439 74.980,351.150 77.344 C 344.615 130.743,296.368 178.990,242.969 185.525 C 240.605 185.814,238.057 186.225,237.305 186.437 C 236.069 186.787,235.937 186.084,235.932 179.154 C 235.922 164.081,235.902 164.073,200.781 164.073 C 165.537 164.073,165.640 164.028,165.630 179.492 L 165.625 187.500 117.224 187.500 L 68.823 187.500 67.322 184.180 C 51.918 150.108,0.000 161.706,-0.000 199.219 C -0.000 236.731,51.918 248.329,67.322 214.258 L 68.823 210.938 81.807 210.938 C 88.949 210.938,94.645 211.074,94.466 211.241 C 94.287 211.408,90.449 214.278,85.938 217.618 C 71.137 228.576,54.998 246.425,46.197 261.567 C 34.432 281.809,28.614 299.376,25.383 324.414 L 24.904 328.125 16.944 328.130 C 1.486 328.140,1.573 327.937,1.573 364.063 C 1.573 403.462,-1.824 399.990,36.719 399.990 C 75.261 399.990,71.865 403.462,71.865 364.063 C 71.865 328.044,71.905 328.140,56.783 328.130 C 49.854 328.125,49.151 327.993,49.500 326.758 C 49.713 326.006,50.124 323.457,50.413 321.094 C 56.948 267.694,105.194 219.448,158.594 212.913 C 160.957 212.624,163.506 212.213,164.258 212.000 C 165.493 211.651,165.625 212.354,165.630 219.283 C 165.640 234.356,165.660 234.365,200.781 234.365 C 236.025 234.365,235.922 234.410,235.932 218.945 L 235.938 210.938 283.557 210.938 L 331.177 210.938 332.678 214.258 C 348.082 248.329,400.000 236.731,400.000 199.219 C 400.000 161.706,348.082 150.108,332.678 184.180 L 331.177 187.500 318.974 187.500 C 312.262 187.500,306.917 187.363,307.096 187.196 C 307.275 187.029,311.113 184.160,315.625 180.819 C 330.425 169.861,346.564 152.013,355.366 136.870 C 367.130 116.628,372.948 99.061,376.179 74.023 L 376.658 70.313 384.618 70.307 C 400.027 70.297,399.990 70.383,399.990 35.156 C 399.990 -3.328,403.328 0.010,364.844 0.010 C 338.986 0.010,336.958 0.110,334.876 1.483 M376.563 35.156 L 376.563 46.875 364.844 46.875 L 353.125 46.875 353.125 35.156 L 353.125 23.438 364.844 23.438 L 376.563 23.438 376.563 35.156 M212.500 199.219 L 212.500 210.938 200.781 210.938 L 189.063 210.938 189.063 199.219 L 189.063 187.500 200.781 187.500 L 212.500 187.500 212.500 199.219 M40.905 189.764 C 50.272 195.940,46.265 210.146,35.156 210.146 C 24.047 210.146,20.040 195.940,29.407 189.764 C 32.347 187.826,37.965 187.826,40.905 189.764 M370.593 189.764 C 374.003 192.012,375.771 195.240,375.771 199.219 C 375.771 203.197,374.003 206.425,370.593 208.674 C 365.865 211.790,358.742 210.054,355.389 204.968 C 349.287 195.712,361.337 183.662,370.593 189.764 M48.438 364.063 L 48.438 376.563 36.719 376.563 L 25.000 376.563 25.000 364.063 L 25.000 351.563 36.719 351.563 L 48.438 351.563 48.438 364.063 " stroke="none" fill="#000000" fill-rule="evenodd"></path></g></svg>