<svg id="svg" version="1.1" xmlns="http://www.w3.org/2000/svg" xmlns:xlink="http://www.w3.org/1999/xlink" width="400" height="400" viewBox="0, 0, 400,400"><g id="svgg"><path id="path0" d="M251.759 21.105 C 173.065 29.248,125.199 109.407,155.357 182.541 L 157.648 188.096 152.202 193.462 C 141.111 204.390,140.182 212.400,148.911 221.830 L 153.036 226.285 143.887 235.410 L 134.738 244.535 127.346 237.111 C 121.913 231.656,119.431 229.688,117.985 229.688 C 114.190 229.688,28.141 316.847,24.659 324.219 C 8.664 358.078,41.940 391.351,75.781 375.336 C 83.162 371.843,170.317 285.806,170.314 282.016 C 170.313 280.570,168.342 278.085,162.889 272.654 L 155.465 265.262 164.590 256.113 L 173.715 246.964 178.210 251.126 C 187.563 259.784,195.668 258.830,206.548 247.788 L 211.925 242.331 215.533 243.909 C 292.851 277.709,379.138 221.382,379.138 137.109 C 379.138 68.382,319.525 14.092,251.759 21.105 M286.719 32.304 C 348.742 47.012,384.591 110.271,364.895 170.253 C 344.312 232.933,272.697 262.815,214.241 233.113 C 148.962 199.944,135.273 113.278,187.104 61.300 C 213.042 35.289,251.768 24.016,286.719 32.304 M254.297 48.984 C 180.349 55.693,147.647 146.997,200.325 199.675 C 246.306 245.657,324.473 228.052,346.309 166.797 C 367.945 106.106,318.763 43.134,254.297 48.984 M276.172 58.737 C 321.196 65.636,351.971 113.399,339.853 157.571 C 323.554 216.981,249.973 236.764,206.604 193.396 C 151.904 138.695,199.297 46.957,276.172 58.737 M222.061 93.173 C 206.094 109.162,206.093 106.505,222.079 122.470 C 235.362 135.735,237.205 136.902,240.179 133.929 C 242.755 131.352,241.645 129.556,230.687 118.578 L 219.968 107.838 230.687 97.021 C 241.766 85.840,242.230 85.117,240.190 82.205 C 237.542 78.425,235.640 79.575,222.061 93.173 M285.184 81.980 C 283.571 84.994,284.552 86.485,295.107 97.060 L 305.838 107.813 295.107 118.565 C 284.136 129.557,283.026 131.351,285.603 133.929 C 288.618 136.943,290.472 135.766,303.742 122.407 C 312.937 113.151,316.406 109.153,316.406 107.813 C 316.406 104.611,291.798 80.469,288.535 80.469 C 286.821 80.469,285.729 80.961,285.184 81.980 M258.935 105.551 C 244.443 129.753,243.966 131.232,250.455 131.874 C 253.568 132.182,253.263 132.593,267.071 109.517 C 280.688 86.760,281.603 83.594,274.557 83.594 C 272.150 83.594,271.729 84.186,258.935 105.551 M231.594 157.384 C 230.855 158.511,230.548 159.957,230.847 160.900 C 232.014 164.577,237.591 164.870,239.200 161.339 C 241.314 156.698,234.399 153.102,231.594 157.384 M244.356 157.495 C 243.614 159.124,243.661 159.927,244.598 161.596 L 245.762 163.672 268.614 163.879 C 293.735 164.107,294.531 163.984,294.531 159.894 C 294.531 155.434,294.731 155.469,268.968 155.469 L 245.279 155.469 244.356 157.495 M232.079 173.390 C 230.151 175.318,230.069 176.426,231.685 178.732 C 234.687 183.019,241.539 178.884,238.991 174.324 C 237.500 171.655,234.252 171.217,232.079 173.390 M245.043 173.304 C 243.413 175.104,243.386 177.649,244.978 179.241 C 246.580 180.844,292.010 181.115,293.594 179.531 C 294.805 178.320,294.805 174.024,293.594 172.813 C 291.844 171.062,246.657 171.520,245.043 173.304 M168.647 205.900 C 176.863 217.247,187.913 227.792,199.115 234.976 L 203.307 237.665 198.356 242.660 C 190.101 250.989,190.772 251.281,169.746 230.254 C 148.777 209.285,149.083 209.983,157.227 201.740 C 161.702 197.210,162.192 196.915,163.100 198.204 C 163.645 198.977,166.141 202.440,168.647 205.900 M158.036 249.386 L 148.867 258.579 145.128 254.896 L 141.389 251.213 150.558 242.020 L 159.727 232.827 163.466 236.510 L 167.205 240.193 158.036 249.386 M117.451 323.565 C 69.120 371.902,71.636 369.908,58.972 369.916 C 41.389 369.929,30.078 358.615,30.078 341.016 C 30.078 328.481,28.101 330.973,76.405 282.619 L 118.351 240.628 138.865 261.130 L 159.378 281.632 117.451 323.565 M74.495 293.901 C 55.309 313.087,54.344 314.439,57.679 317.457 C 60.863 320.339,62.098 319.461,80.148 301.475 C 99.429 282.263,100.125 281.378,98.382 278.259 C 95.574 273.233,94.382 274.014,74.495 293.901 M43.374 325.086 C 34.337 335.090,34.535 350.340,43.793 357.193 C 48.969 361.025,52.437 355.403,48.533 349.509 C 44.038 342.723,44.351 337.952,49.684 331.947 C 54.691 326.310,54.285 321.875,48.763 321.875 C 46.841 321.875,45.616 322.605,43.374 325.086 " stroke="none" fill="#000000" fill-rule="evenodd"></path></g></svg>