<svg id="svg" version="1.1" xmlns="http://www.w3.org/2000/svg" xmlns:xlink="http://www.w3.org/1999/xlink" width="400" height="400" viewBox="0, 0, 400,400"><g id="svgg"><path id="path0" d="M283.203 0.896 C 280.769 2.218,228.162 54.816,226.902 57.188 C 224.262 62.157,225.579 67.897,230.543 73.059 L 233.560 76.196 166.504 109.717 C 94.659 145.631,96.945 144.385,94.625 148.920 C 88.059 161.752,-0.000 385.143,-0.000 388.967 C 0.000 395.222,4.778 400.000,11.033 400.000 C 14.857 400.000,238.248 311.941,251.080 305.375 C 255.615 303.055,254.369 305.341,290.283 233.496 L 323.804 166.440 326.941 169.457 C 331.928 174.252,337.760 175.720,342.434 173.356 C 344.863 172.127,397.528 119.574,398.879 117.031 C 400.320 114.320,400.319 108.335,398.879 105.625 C 397.522 103.074,296.421 2.088,293.997 0.862 C 291.826 -0.235,285.248 -0.214,283.203 0.896 M354.104 128.318 L 337.119 145.316 295.905 104.108 L 254.691 62.900 271.677 45.901 L 288.662 28.902 329.876 70.111 L 371.090 111.319 354.104 128.318 M278.778 121.357 L 305.595 148.182 271.403 216.572 L 237.210 284.963 150.051 319.825 L 62.892 354.688 111.843 305.736 L 160.794 256.785 165.409 258.080 C 197.732 267.149,223.519 232.131,205.030 204.276 C 182.900 170.936,129.899 196.694,141.952 234.932 L 143.279 239.141 94.296 288.125 L 45.312 337.108 80.175 249.949 L 115.037 162.790 183.104 128.704 C 220.542 109.957,251.350 94.599,251.567 94.575 C 251.784 94.551,264.029 106.603,278.778 121.357 M181.530 214.764 C 190.897 220.940,186.890 235.146,175.781 235.146 C 169.495 235.146,164.854 230.505,164.854 224.219 C 164.854 217.932,169.495 213.292,175.781 213.292 C 177.914 213.292,180.175 213.871,181.530 214.764 " stroke="none" fill="#000000" fill-rule="evenodd"></path></g></svg>